<svg width="106" height="32" viewBox="0 0 106 32" fill="none" xmlns="http://www.w3.org/2000/svg">
<rect width="106" height="32" fill="#0853A2"/>
<path d="M25.16 15.668H29.6V16.436H25.16V15.668ZM25.256 20H24.368V11.6H30.128V12.368H25.256V20ZM34.2468 20.06C33.5908 20.06 33.0148 19.924 32.5188 19.652C32.0228 19.372 31.6348 18.992 31.3548 18.512C31.0748 18.024 30.9348 17.468 30.9348 16.844C30.9348 16.22 31.0668 15.668 31.3308 15.188C31.6028 14.708 31.9708 14.332 32.4348 14.06C32.9068 13.78 33.4348 13.64 34.0188 13.64C34.6108 13.64 35.1348 13.776 35.5908 14.048C36.0548 14.312 36.4188 14.688 36.6828 15.176C36.9468 15.656 37.0788 16.212 37.0788 16.844C37.0788 16.884 37.0748 16.928 37.0668 16.976C37.0668 17.016 37.0668 17.06 37.0668 17.108H31.5828V16.472H36.6108L36.2748 16.724C36.2748 16.268 36.1748 15.864 35.9748 15.512C35.7828 15.152 35.5188 14.872 35.1828 14.672C34.8468 14.472 34.4588 14.372 34.0188 14.372C33.5868 14.372 33.1988 14.472 32.8548 14.672C32.5108 14.872 32.2428 15.152 32.0508 15.512C31.8588 15.872 31.7628 16.284 31.7628 16.748V16.88C31.7628 17.36 31.8668 17.784 32.0748 18.152C32.2908 18.512 32.5868 18.796 32.9628 19.004C33.3468 19.204 33.7828 19.304 34.2708 19.304C34.6548 19.304 35.0108 19.236 35.3388 19.1C35.6748 18.964 35.9628 18.756 36.2028 18.476L36.6828 19.028C36.4028 19.364 36.0508 19.62 35.6268 19.796C35.2108 19.972 34.7508 20.06 34.2468 20.06ZM41.489 20.06C40.833 20.06 40.257 19.924 39.761 19.652C39.265 19.372 38.877 18.992 38.597 18.512C38.317 18.024 38.177 17.468 38.177 16.844C38.177 16.22 38.309 15.668 38.573 15.188C38.845 14.708 39.213 14.332 39.677 14.06C40.149 13.78 40.677 13.64 41.261 13.64C41.853 13.64 42.377 13.776 42.833 14.048C43.297 14.312 43.661 14.688 43.925 15.176C44.189 15.656 44.321 16.212 44.321 16.844C44.321 16.884 44.317 16.928 44.309 16.976C44.309 17.016 44.309 17.06 44.309 17.108H38.825V16.472H43.853L43.517 16.724C43.517 16.268 43.417 15.864 43.217 15.512C43.025 15.152 42.761 14.872 42.425 14.672C42.089 14.472 41.701 14.372 41.261 14.372C40.829 14.372 40.441 14.472 40.097 14.672C39.753 14.872 39.485 15.152 39.293 15.512C39.101 15.872 39.005 16.284 39.005 16.748V16.88C39.005 17.36 39.109 17.784 39.317 18.152C39.533 18.512 39.829 18.796 40.205 19.004C40.589 19.204 41.025 19.304 41.513 19.304C41.897 19.304 42.253 19.236 42.581 19.1C42.917 18.964 43.205 18.756 43.445 18.476L43.925 19.028C43.645 19.364 43.293 19.62 42.869 19.796C42.453 19.972 41.993 20.06 41.489 20.06ZM48.5632 20.06C47.9632 20.06 47.4232 19.924 46.9432 19.652C46.4712 19.38 46.0992 19.004 45.8272 18.524C45.5552 18.036 45.4192 17.476 45.4192 16.844C45.4192 16.204 45.5552 15.644 45.8272 15.164C46.0992 14.684 46.4712 14.312 46.9432 14.048C47.4232 13.776 47.9632 13.64 48.5632 13.64C49.1152 13.64 49.6072 13.764 50.0392 14.012C50.4792 14.26 50.8272 14.624 51.0832 15.104C51.3472 15.576 51.4792 16.156 51.4792 16.844C51.4792 17.524 51.3512 18.104 51.0952 18.584C50.8392 19.064 50.4912 19.432 50.0512 19.688C49.6192 19.936 49.1232 20.06 48.5632 20.06ZM48.6232 19.304C49.0712 19.304 49.4712 19.204 49.8232 19.004C50.1832 18.796 50.4632 18.508 50.6632 18.14C50.8712 17.764 50.9752 17.332 50.9752 16.844C50.9752 16.348 50.8712 15.916 50.6632 15.548C50.4632 15.18 50.1832 14.896 49.8232 14.696C49.4712 14.488 49.0712 14.384 48.6232 14.384C48.1832 14.384 47.7872 14.488 47.4352 14.696C47.0832 14.896 46.8032 15.18 46.5952 15.548C46.3872 15.916 46.2832 16.348 46.2832 16.844C46.2832 17.332 46.3872 17.764 46.5952 18.14C46.8032 18.508 47.0832 18.796 47.4352 19.004C47.7872 19.204 48.1832 19.304 48.6232 19.304ZM50.9992 20V18.104L51.0832 16.832L50.9632 15.56V11.096H51.8152V20H50.9992ZM57.44 20.06C56.888 20.06 56.392 19.936 55.952 19.688C55.512 19.432 55.164 19.064 54.908 18.584C54.652 18.104 54.524 17.524 54.524 16.844C54.524 16.156 54.652 15.576 54.908 15.104C55.172 14.624 55.524 14.26 55.964 14.012C56.404 13.764 56.896 13.64 57.44 13.64C58.04 13.64 58.576 13.776 59.048 14.048C59.528 14.312 59.904 14.684 60.176 15.164C60.448 15.644 60.584 16.204 60.584 16.844C60.584 17.476 60.448 18.036 60.176 18.524C59.904 19.004 59.528 19.38 59.048 19.652C58.576 19.924 58.04 20.06 57.44 20.06ZM54.188 20V11.096H55.04V15.56L54.92 16.832L55.004 18.104V20H54.188ZM57.38 19.304C57.828 19.304 58.228 19.204 58.58 19.004C58.932 18.796 59.212 18.508 59.42 18.14C59.628 17.764 59.732 17.332 59.732 16.844C59.732 16.348 59.628 15.916 59.42 15.548C59.212 15.18 58.932 14.896 58.58 14.696C58.228 14.488 57.828 14.384 57.38 14.384C56.932 14.384 56.528 14.488 56.168 14.696C55.816 14.896 55.536 15.18 55.328 15.548C55.128 15.916 55.028 16.348 55.028 16.844C55.028 17.332 55.128 17.764 55.328 18.14C55.536 18.508 55.816 18.796 56.168 19.004C56.528 19.204 56.932 19.304 57.38 19.304ZM66.2337 20V18.608L66.1977 18.38V16.052C66.1977 15.516 66.0457 15.104 65.7417 14.816C65.4457 14.528 65.0017 14.384 64.4097 14.384C64.0017 14.384 63.6137 14.452 63.2457 14.588C62.8777 14.724 62.5657 14.904 62.3097 15.128L61.9257 14.492C62.2457 14.22 62.6297 14.012 63.0777 13.868C63.5257 13.716 63.9977 13.64 64.4937 13.64C65.3097 13.64 65.9377 13.844 66.3777 14.252C66.8257 14.652 67.0497 15.264 67.0497 16.088V20H66.2337ZM64.0617 20.06C63.5897 20.06 63.1777 19.984 62.8257 19.832C62.4817 19.672 62.2177 19.456 62.0337 19.184C61.8497 18.904 61.7577 18.584 61.7577 18.224C61.7577 17.896 61.8337 17.6 61.9857 17.336C62.1457 17.064 62.4017 16.848 62.7537 16.688C63.1137 16.52 63.5937 16.436 64.1937 16.436H66.3657V17.072H64.2177C63.6097 17.072 63.1857 17.18 62.9457 17.396C62.7137 17.612 62.5977 17.88 62.5977 18.2C62.5977 18.56 62.7377 18.848 63.0177 19.064C63.2977 19.28 63.6897 19.388 64.1937 19.388C64.6737 19.388 65.0857 19.28 65.4297 19.064C65.7817 18.84 66.0377 18.52 66.1977 18.104L66.3897 18.692C66.2297 19.108 65.9497 19.44 65.5497 19.688C65.1577 19.936 64.6617 20.06 64.0617 20.06ZM71.9798 20.06C71.3558 20.06 70.7958 19.924 70.2998 19.652C69.8118 19.372 69.4278 18.992 69.1478 18.512C68.8678 18.024 68.7278 17.468 68.7278 16.844C68.7278 16.212 68.8678 15.656 69.1478 15.176C69.4278 14.696 69.8118 14.32 70.2998 14.048C70.7958 13.776 71.3558 13.64 71.9798 13.64C72.5158 13.64 72.9998 13.744 73.4318 13.952C73.8638 14.16 74.2038 14.472 74.4518 14.888L73.8158 15.32C73.5998 15 73.3318 14.764 73.0118 14.612C72.6918 14.46 72.3438 14.384 71.9678 14.384C71.5198 14.384 71.1158 14.488 70.7558 14.696C70.3958 14.896 70.1118 15.18 69.9038 15.548C69.6958 15.916 69.5918 16.348 69.5918 16.844C69.5918 17.34 69.6958 17.772 69.9038 18.14C70.1118 18.508 70.3958 18.796 70.7558 19.004C71.1158 19.204 71.5198 19.304 71.9678 19.304C72.3438 19.304 72.6918 19.228 73.0118 19.076C73.3318 18.924 73.5998 18.692 73.8158 18.38L74.4518 18.812C74.2038 19.22 73.8638 19.532 73.4318 19.748C72.9998 19.956 72.5158 20.06 71.9798 20.06ZM76.7038 18.368L76.7278 17.276L80.6518 13.7H81.6958L78.9238 16.352L78.4438 16.76L76.7038 18.368ZM76.0318 20V11.096H76.8838V20H76.0318ZM80.9158 20L78.2878 16.724L78.8398 16.064L81.9598 20H80.9158Z" fill="white"/>
</svg>
